<svg width="21" height="21" viewBox="0 0 21 21" fill="none" xmlns="http://www.w3.org/2000/svg">
<path d="M1.06695 1.06695C1.19757 0.935987 1.35276 0.832085 1.5236 0.761192C1.69445 0.690299 1.8776 0.653809 2.06257 0.653809C2.24754 0.653809 2.4307 0.690299 2.60154 0.761192C2.77239 0.832085 2.92757 0.935987 3.0582 1.06695L10.5001 8.51163L17.9419 1.06695C18.0727 0.936199 18.2279 0.832485 18.3987 0.761725C18.5696 0.690965 18.7527 0.654545 18.9376 0.654545C19.1225 0.654545 19.3056 0.690965 19.4764 0.761725C19.6472 0.832485 19.8024 0.936199 19.9332 1.06695C20.0639 1.19769 20.1677 1.35291 20.2384 1.52374C20.3092 1.69457 20.3456 1.87767 20.3456 2.06257C20.3456 2.24748 20.3092 2.43057 20.2384 2.6014C20.1677 2.77223 20.0639 2.92745 19.9332 3.0582L12.4885 10.5001L19.9332 17.9419C20.0639 18.0727 20.1677 18.2279 20.2384 18.3987C20.3092 18.5696 20.3456 18.7527 20.3456 18.9376C20.3456 19.1225 20.3092 19.3056 20.2384 19.4764C20.1677 19.6472 20.0639 19.8024 19.9332 19.9332C19.8024 20.0639 19.6472 20.1677 19.4764 20.2384C19.3056 20.3092 19.1225 20.3456 18.9376 20.3456C18.7527 20.3456 18.5696 20.3092 18.3987 20.2384C18.2279 20.1677 18.0727 20.0639 17.9419 19.9332L10.5001 12.4885L3.0582 19.9332C2.92745 20.0639 2.77223 20.1677 2.6014 20.2384C2.43057 20.3092 2.24748 20.3456 2.06257 20.3456C1.87767 20.3456 1.69457 20.3092 1.52374 20.2384C1.35291 20.1677 1.19769 20.0639 1.06695 19.9332C0.936199 19.8024 0.832485 19.6472 0.761725 19.4764C0.690965 19.3056 0.654545 19.1225 0.654545 18.9376C0.654545 18.7527 0.690965 18.5696 0.761725 18.3987C0.832485 18.2279 0.936199 18.0727 1.06695 17.9419L8.51163 10.5001L1.06695 3.0582C0.935987 2.92757 0.832085 2.77239 0.761192 2.60154C0.690299 2.4307 0.653809 2.24754 0.653809 2.06257C0.653809 1.8776 0.690299 1.69445 0.761192 1.5236C0.832085 1.35276 0.935987 1.19757 1.06695 1.06695Z" fill="black"/>
</svg>
