<svg width="52" height="52" viewBox="0 0 52 52" fill="none" xmlns="http://www.w3.org/2000/svg">
<path d="M19.5 26C22.0859 26 24.5658 24.9728 26.3943 23.1443C28.2228 21.3158 29.25 18.8359 29.25 16.25C29.25 13.6641 28.2228 11.1842 26.3943 9.35571C24.5658 7.52723 22.0859 6.5 19.5 6.5C16.9141 6.5 14.4342 7.52723 12.6057 9.35571C10.7772 11.1842 9.75 13.6641 9.75 16.25C9.75 18.8359 10.7772 21.3158 12.6057 23.1443C14.4342 24.9728 16.9141 26 19.5 26ZM26 16.25C26 17.9739 25.3152 19.6272 24.0962 20.8462C22.8772 22.0652 21.2239 22.75 19.5 22.75C17.7761 22.75 16.1228 22.0652 14.9038 20.8462C13.6848 19.6272 13 17.9739 13 16.25C13 14.5261 13.6848 12.8728 14.9038 11.6538C16.1228 10.4348 17.7761 9.75 19.5 9.75C21.2239 9.75 22.8772 10.4348 24.0962 11.6538C25.3152 12.8728 26 14.5261 26 16.25ZM39 42.25C39 45.5 35.75 45.5 35.75 45.5H3.25C3.25 45.5 0 45.5 0 42.25C0 39 3.25 29.25 19.5 29.25C35.75 29.25 39 39 39 42.25ZM35.75 42.237C35.7467 41.4375 35.2495 39.0325 33.046 36.829C30.927 34.71 26.9393 32.5 19.5 32.5C12.0608 32.5 8.073 34.71 5.954 36.829C3.7505 39.0325 3.2565 41.4375 3.25 42.237H35.75Z" fill="black"/>
<path fill-rule="evenodd" clip-rule="evenodd" d="M43.875 16.25C44.306 16.25 44.7193 16.4212 45.024 16.726C45.3288 17.0307 45.5 17.444 45.5 17.875V22.75H50.375C50.806 22.75 51.2193 22.9212 51.524 23.226C51.8288 23.5307 52 23.944 52 24.375C52 24.806 51.8288 25.2193 51.524 25.524C51.2193 25.8288 50.806 26 50.375 26H45.5V30.875C45.5 31.306 45.3288 31.7193 45.024 32.024C44.7193 32.3288 44.306 32.5 43.875 32.5C43.444 32.5 43.0307 32.3288 42.726 32.024C42.4212 31.7193 42.25 31.306 42.25 30.875V26H37.375C36.944 26 36.5307 25.8288 36.226 25.524C35.9212 25.2193 35.75 24.806 35.75 24.375C35.75 23.944 35.9212 23.5307 36.226 23.226C36.5307 22.9212 36.944 22.75 37.375 22.75H42.25V17.875C42.25 17.444 42.4212 17.0307 42.726 16.726C43.0307 16.4212 43.444 16.25 43.875 16.25Z" fill="black"/>
</svg>
