<svg width="24" height="19" viewBox="0 0 24 19" fill="none" xmlns="http://www.w3.org/2000/svg">
<path d="M19.853 0.978118C20.2492 0.60093 20.7764 0.392406 21.3234 0.396545C21.8704 0.400684 22.3944 0.617163 22.7849 1.0003C23.1753 1.38344 23.4016 1.90327 23.4161 2.45011C23.4306 2.99694 23.232 3.52801 22.8624 3.93124L11.6405 17.9656C11.4475 18.1735 11.2146 18.3402 10.9557 18.456C10.6968 18.5718 10.4173 18.6342 10.1337 18.6394C9.85014 18.6447 9.56844 18.5927 9.30543 18.4866C9.04242 18.3805 8.80351 18.2224 8.60299 18.0219L1.16111 10.58C0.953869 10.3869 0.787645 10.154 0.672355 9.89526C0.557065 9.63651 0.495072 9.35719 0.490074 9.07396C0.485077 8.79074 0.537178 8.5094 0.643269 8.24675C0.749359 7.9841 0.907266 7.7455 1.10757 7.5452C1.30787 7.34489 1.54647 7.18699 1.80912 7.0809C2.07177 6.97481 2.35311 6.92271 2.63633 6.9277C2.91956 6.9327 3.19888 6.99469 3.45763 7.10998C3.71638 7.22527 3.94925 7.3915 4.14236 7.59874L10.0317 13.4853L19.7996 1.03999L19.853 0.978118Z" fill="black"/>
</svg>
