<?xml version="1.0" standalone="no"?>
<!DOCTYPE svg PUBLIC "-//W3C//DTD SVG 20010904//EN"
 "http://www.w3.org/TR/2001/REC-SVG-20010904/DTD/svg10.dtd">
<svg version="1.0" xmlns="http://www.w3.org/2000/svg"
 width="398.000000pt" height="224.000000pt" viewBox="0 0 398.000000 224.000000"
 preserveAspectRatio="xMidYMid meet">

<g transform="translate(0.000000,224.000000) scale(0.100000,-0.100000)"
fill="#000000" stroke="none">
<path d="M0 1120 l0 -1120 1990 0 1990 0 0 1120 0 1120 -1990 0 -1990 0 0
-1120z m2430 359 c51 -18 88 -46 107 -82 21 -41 31 -341 14 -432 -10 -53 -17
-66 -63 -110 -34 -32 -39 -36 -16 -10 52 56 61 108 56 324 -4 192 -12 221 -64
256 -44 29 -123 45 -220 45 -111 0 -187 -21 -231 -63 -18 -17 -33 -27 -33 -21
0 13 74 72 107 85 79 30 268 35 343 8z m-2083 -3 c5 -4 10 -74 13 -154 5 -143
6 -147 28 -150 22 -3 22 -2 22 120 l0 124 34 33 c33 32 39 34 113 36 126 2
113 40 113 -330 0 -276 -2 -324 -15 -329 -13 -5 -15 36 -17 312 l-3 317 -84 3
c-75 3 -86 1 -107 -19 -23 -21 -24 -29 -24 -145 0 -85 4 -124 12 -126 6 -2 8
-10 4 -16 -8 -13 -47 -15 -83 -6 -22 6 -23 10 -23 148 0 97 -4 146 -12 154 -7
7 -43 12 -93 12 -72 0 -84 -3 -103 -23 -20 -21 -22 -35 -25 -202 l-2 -180 -3
181 -2 182 38 34 c37 34 39 34 125 33 48 -1 90 -5 94 -9z m845 -10 c55 -27 71
-58 76 -154 6 -106 -11 -153 -76 -206 l-47 -39 45 47 45 47 3 92 c3 103 -11
144 -61 181 -26 19 -45 21 -201 24 -147 3 -174 1 -185 -12 -8 -9 -18 -16 -24
-16 -5 0 6 13 25 28 l36 28 163 -1 c134 -1 171 -5 201 -19z m625 -7 c74 -37
88 -70 88 -209 0 -135 -14 -172 -86 -228 -31 -24 -35 -26 -13 -6 55 51 66 78
72 173 8 142 -23 223 -96 253 -15 6 -111 13 -215 16 -187 4 -189 4 -215 -19
l-27 -24 25 29 c14 15 33 31 44 35 10 4 98 6 197 5 165 -1 181 -3 226 -25z
m1008 17 c11 -4 47 -39 80 -78 l60 -71 5 51 c3 28 8 52 10 54 3 2 18 14 33 28
24 21 38 24 105 25 122 2 112 33 112 -328 l0 -313 -33 -32 -34 -33 -94 4 -94
3 96 2 c79 2 99 5 113 20 15 17 16 51 14 333 l-3 314 -84 3 c-75 3 -86 1 -107
-19 -20 -19 -24 -33 -24 -79 0 -31 5 -61 11 -67 6 -6 9 -21 7 -34 -3 -19 -16
-8 -92 80 -49 56 -97 106 -107 111 -10 6 -43 10 -73 10 -51 0 -75 12 -44 22
19 7 121 2 143 -6z m993 1 c8 -5 12 -33 12 -80 0 -66 -2 -73 -32 -104 -18 -18
-36 -33 -41 -33 -5 0 2 9 17 21 24 19 26 26 26 94 0 57 -3 74 -16 79 -27 10
-270 7 -324 -5 -55 -12 -110 -52 -142 -104 -10 -16 -18 -25 -18 -20 0 26 76
106 127 133 13 7 43 16 66 20 56 10 309 8 325 -1z m-1158 -20 c0 -2 -10 -12
-22 -23 l-23 -19 19 23 c18 21 26 27 26 19z m-1785 -185 c102 -2 161 -15 150
-32 -3 -5 -45 -20 -94 -35 -95 -29 -149 -65 -182 -119 -10 -17 -19 -25 -19
-17 0 8 26 40 58 71 47 47 70 61 127 80 39 12 74 26 80 31 5 5 -40 9 -106 9
-76 0 -119 4 -127 12 -7 7 -11 39 -10 83 l2 70 5 -75 6 -75 110 -3z m1742 16
c-2 -24 -4 -5 -4 42 0 47 2 66 4 43 2 -24 2 -62 0 -85z m-661 46 c-6 -19 -12
-28 -14 -20 -3 13 14 56 22 56 2 0 -2 -16 -8 -36z m-629 -16 c-3 -8 -6 -5 -6
6 -1 11 2 17 5 13 3 -3 4 -12 1 -19z m1970 -310 c-1 -57 -3 -11 -3 102 0 113
2 159 3 103 2 -57 2 -149 0 -205z m-1970 260 c-3 -7 -5 -2 -5 12 0 14 2 19 5
13 2 -7 2 -19 0 -25z m253 12 c0 -5 13 -10 29 -10 37 0 48 -15 52 -70 l4 -45
-52 -3 -53 -3 0 70 c0 41 4 71 10 71 6 0 10 -4 10 -10z m648 -8 l-28 -3 0
-129 c0 -118 2 -130 19 -140 11 -5 31 -10 45 -10 l26 0 0 130 c0 112 -2 130
-17 139 -10 6 -13 11 -7 11 26 0 33 -31 35 -160 l1 -135 -52 -3 c-79 -5 -80
-2 -80 163 0 78 2 144 5 146 2 3 21 3 42 0 33 -5 34 -6 11 -9z m1323 -126 c-2
-137 -2 -137 64 -146 58 -7 44 -25 -21 -25 -37 0 -58 5 -64 15 -14 23 -13 263
2 278 6 6 14 10 16 7 2 -2 4 -60 3 -129z m-1614 -113 c-1 -43 -3 -8 -3 77 0
85 2 120 3 78 2 -43 2 -113 0 -155z m680 170 c-3 -10 -5 -4 -5 12 0 17 2 24 5
18 2 -7 2 -21 0 -30z m-1290 -20 c-3 -10 -5 -4 -5 12 0 17 2 24 5 18 2 -7 2
-21 0 -30z m1290 -25 c-3 -8 -6 -5 -6 6 -1 11 2 17 5 13 3 -3 4 -12 1 -19z
m1261 10 c8 -8 12 -60 12 -167 l0 -155 -32 -33 -32 -33 -195 2 -196 3 193 2
c171 3 196 6 213 22 18 17 19 30 17 177 l-3 159 -89 3 c-74 2 -93 0 -110 -15
-12 -10 -7 -3 11 15 32 31 35 32 116 32 51 0 88 -5 95 -12z m-2551 -45 c-3
-10 -5 -4 -5 12 0 17 2 24 5 18 2 -7 2 -21 0 -30z m1290 -140 c-2 -32 -3 -8
-3 52 0 61 1 87 3 58 2 -29 2 -78 0 -110z m254 105 c3 -23 24 -58 57 -98 52
-62 52 -62 50 -128 l-1 -67 -6 70 c-6 65 -9 75 -51 124 l-45 53 -3 -101 c-3
-100 -3 -102 -35 -131 -30 -28 -37 -29 -119 -30 -48 0 -89 3 -91 8 -3 4 35 6
85 4 130 -5 128 -8 128 185 0 119 3 154 12 151 7 -3 16 -21 19 -40z m-1544
-10 c-3 -8 -6 -5 -6 6 -1 11 2 17 5 13 3 -3 4 -12 1 -19z m-192 -18 c-3 -5
-12 -10 -18 -10 -7 0 -6 4 3 10 19 12 23 12 15 0z m192 -22 c-3 -8 -6 -5 -6 6
-1 11 2 17 5 13 3 -3 4 -12 1 -19z m-600 -25 c-3 -10 -5 -4 -5 12 0 17 2 24 5
18 2 -7 2 -21 0 -30z m-589 -38 c9 -12 5 -8 -10 7 -16 16 -28 36 -27 46 0 12
3 9 10 -8 6 -14 18 -34 27 -45z m842 35 c0 -5 59 -11 143 -12 l142 -3 3 -75
c3 -74 2 -76 -31 -108 l-33 -32 -239 2 c-183 2 -239 6 -241 16 -1 7 0 8 3 2 3
-6 89 -10 241 -10 283 0 272 -4 272 107 l0 73 -139 0 c-140 0 -159 5 -147 35
6 17 26 20 26 5z m347 -42 c-2 -13 -4 -5 -4 17 -1 22 1 32 4 23 2 -10 2 -28 0
-40z m253 12 c0 -5 24 -11 53 -12 l52 -2 -47 -3 -48 -4 0 -53 c0 -45 -5 -58
-31 -89 l-32 -37 -93 0 c-51 0 -95 3 -97 8 -3 4 38 6 90 4 123 -4 133 5 133
120 0 45 4 78 10 78 6 0 10 -4 10 -10z m-1162 -112 l-2 -73 -3 67 -4 67 -102
4 -102 3 108 2 107 2 -2 -72z m909 50 c-3 -8 -6 -5 -6 6 -1 11 2 17 5 13 3 -3
4 -12 1 -19z m653 -83 c7 -8 10 -15 6 -15 -11 0 -46 64 -46 85 1 12 6 5 14
-18 8 -20 19 -44 26 -52z m637 3 c-2 -18 -4 -6 -4 27 0 33 2 48 4 33 2 -15 2
-42 0 -60z m-1290 40 c-3 -8 -6 -5 -6 6 -1 11 2 17 5 13 3 -3 4 -12 1 -19z
m2018 -38 l30 -35 -32 29 c-18 17 -33 34 -33 40 0 5 1 7 3 5 1 -2 16 -20 32
-39z m-2018 -2 c-3 -8 -6 -5 -6 6 -1 11 2 17 5 13 3 -3 4 -12 1 -19z m722 -44
c14 -12 -19 -1 -35 12 -18 14 -18 14 6 3 14 -6 27 -13 29 -15z m-1427 1 c-16
-12 -42 -15 -109 -12 l-88 3 92 2 c50 1 95 7 98 12 3 6 11 10 18 10 6 0 2 -7
-11 -15z m1778 -5 c-8 -5 -22 -9 -30 -9 -10 0 -8 3 5 9 27 12 43 12 25 0z
m1027 4 c-3 -3 -12 -4 -19 -1 -8 3 -5 6 6 6 11 1 17 -2 13 -5z m-1278 -20 c9
-8 -55 -2 -74 6 -13 6 -5 7 25 3 25 -3 47 -7 49 -9z m194 -1 c-7 -2 -21 -2
-30 0 -10 3 -4 5 12 5 17 0 24 -2 18 -5z"/>
<path d="M1589 1256 c-1 -3 -1 -17 -1 -31 0 -43 1 -45 33 -45 29 0 30 2 27 38
-3 32 -7 37 -30 40 -16 2 -28 1 -29 -2z"/>
</g>
</svg>
